HIERARCHY
ROOT Hips
{
  OFFSET 363.916 89.4436 202.859
  CHANNELS 6 Xposition Yposition Zposition Zrotation Xrotation Yrotation
  JOINT RightUpLeg
  {
    OFFSET -9.22681 -1.41939 0.059526
    CHANNELS 3 Zrotation Xrotation Yrotation
    JOINT RightLeg
    {
      OFFSET 0.076897 -41.8891 0.179098
      CHANNELS 3 Zrotation Xrotation Yrotation
      JOINT RightFoot
      {
        OFFSET -0.0130714 -43.0092 0.527065
        CHANNELS 3 Zrotation Xrotation Yrotation
        End Site
        {
          OFFSET 0 -7.69 17.5
        }
      }
    }
  }
  JOINT LeftUpLeg
  {
    OFFSET 9.19333 -1.7604 -0.077889
    CHANNELS 3 Zrotation Xrotation Yrotation
    JOINT LeftLeg
    {
      OFFSET -0.0291634 -41.859 -0.15197
      CHANNELS 3 Zrotation Xrotation Yrotation
      JOINT LeftFoot
      {
        OFFSET 0.141288 -40.5593 0.458407
        CHANNELS 3 Zrotation Xrotation Yrotation
        End Site
        {
          OFFSET 0 -7.69 17.5
        }
      }
    }
  }
  JOINT Spine
  {
    OFFSET 0.215607 14.2961 0.04713
    CHANNELS 3 Zrotation Xrotation Yrotation
    JOINT Spine1
    {
      OFFSET 0.127345 9.70675 0.00151561
      CHANNELS 3 Zrotation Xrotation Yrotation
      JOINT Spine2
      {
        OFFSET 0.0493166 10.1169 -0.00299987
        CHANNELS 3 Zrotation Xrotation Yrotation
        JOINT Spine3
        {
          OFFSET 0.0599611 9.70888 0.0197622
          CHANNELS 3 Zrotation Xrotation Yrotation
          JOINT Neck
          {
            OFFSET 0.305156 10.372 0.0704915
            CHANNELS 3 Zrotation Xrotation Yrotation
            JOINT Head
            {
              OFFSET 0.288394 9.47974 0.0406202
              CHANNELS 3 Zrotation Xrotation Yrotation
              End Site
              {
                OFFSET 0 15.95 0
              }
            }
          }
          JOINT RightShoulder
          {
            OFFSET -3.14873 6.92098 0.0285763
            CHANNELS 3 Zrotation Xrotation Yrotation
            JOINT RightArm
            {
              OFFSET -12.7049 -0.00288304 0.0369593
              CHANNELS 3 Zrotation Xrotation Yrotation
              JOINT RightForeArm
              {
                OFFSET -26.4954 -0.160471 0.0134548
                CHANNELS 3 Zrotation Xrotation Yrotation
                JOINT RightHand
                {
                  OFFSET -26.0026 -0.0211725 -0.0218708
                  CHANNELS 3 Zrotation Xrotation Yrotation
                  JOINT RightHandThumb1
                  {
                    OFFSET -2.48905 0.190105 3.12053
                    CHANNELS 3 Zrotation Xrotation Yrotation
                    JOINT RightHandThumb2
                    {
                      OFFSET -3.68274 0 0
                      CHANNELS 3 Zrotation Xrotation Yrotation
                      JOINT RightHandThumb3
                      {
                        OFFSET -2.55832 0 0
                        CHANNELS 3 Zrotation Xrotation Yrotation
                        End Site
                        {
                          OFFSET -2.194 0 0
                        }
                      }
                    }
                  }
                  JOINT RightInHandIndex
                  {
                    OFFSET -3.22368 0.508421 1.97842
                    CHANNELS 3 Zrotation Xrotation Yrotation
                    JOINT RightHandIndex1
                    {
                      OFFSET -5.21684 -0.091368 0.999158
                      CHANNELS 3 Zrotation Xrotation Yrotation
                      JOINT RightHandIndex2
                      {
                        OFFSET -3.61937 0 0
                        CHANNELS 3 Zrotation Xrotation Yrotation
                        JOINT RightHandIndex3
                        {
                          OFFSET -2.0521 0 0
                          CHANNELS 3 Zrotation Xrotation Yrotation
                          End Site
                          {
                            OFFSET -1.805 0 0
                          }
                        }
                      }
                    }
                  }
                  JOINT RightInHandMiddle
                  {
                    OFFSET -3.38211 0.517263 0.756737
                    CHANNELS 3 Zrotation Xrotation Yrotation
                    JOINT RightHandMiddle1
                    {
                      OFFSET -5.17411 -0.084 0.313895
                      CHANNELS 3 Zrotation Xrotation Yrotation
                      JOINT RightHandMiddle2
                      {
                        OFFSET -3.94947 0 0
                        CHANNELS 3 Zrotation Xrotation Yrotation
                        JOINT RightHandMiddle3
                        {
                          OFFSET -2.47579 0 0
                          CHANNELS 3 Zrotation Xrotation Yrotation
                          End Site
                          {
                            OFFSET -1.975 0 0
                          }
                        }
                      }
                    }
                  }
                  JOINT RightInHandRing
                  {
                    OFFSET -3.36516 0.537895 -0.128947
                    CHANNELS 3 Zrotation Xrotation Yrotation
                    JOINT RightHandRing1
                    {
                      OFFSET -4.63474 -0.022105 -0.478947
                      CHANNELS 3 Zrotation Xrotation Yrotation
                      JOINT RightHandRing2
                      {
                        OFFSET -3.44238 0 0
                        CHANNELS 3 Zrotation Xrotation Yrotation
                        JOINT RightHandRing3
                        {
                          OFFSET -2.3881 0 0
                          CHANNELS 3 Zrotation Xrotation Yrotation
                          End Site
                          {
                            OFFSET -1.857 0 0
                          }
                        }
                      }
                    }
                  }
                  JOINT RightInHandPinky
                  {
                    OFFSET -3.16105 0.469368 -1.20179
                    CHANNELS 3 Zrotation Xrotation Yrotation
                    JOINT RightHandPinky1
                    {
                      OFFSET -4.14105 -0.022105 -1.09053
                      CHANNELS 3 Zrotation Xrotation Yrotation
                      JOINT RightHandPinky2
                      {
                        OFFSET -2.75653 0 0
                        CHANNELS 3 Zrotation Xrotation Yrotation
                        JOINT RightHandPinky3
                        {
                          OFFSET -1.74189 0 0
                          CHANNELS 3 Zrotation Xrotation Yrotation
                          End Site
                          {
                            OFFSET -1.645 0 0
                          }
                        }
                      }
                    }
                  }
                }
              }
            }
          }
          JOINT LeftShoulder
          {
            OFFSET 3.26342 6.92519 -0.0174379
            CHANNELS 3 Zrotation Xrotation Yrotation
            JOINT LeftArm
            {
              OFFSET 12.8742 -0.0269705 -0.0666419
              CHANNELS 3 Zrotation Xrotation Yrotation
              JOINT LeftForeArm
              {
                OFFSET 26.5114 0.000826062 -0.052783
                CHANNELS 3 Zrotation Xrotation Yrotation
                JOINT LeftHand
                {
                  OFFSET 25.9941 -0.0689373 0.00603348
                  CHANNELS 3 Zrotation Xrotation Yrotation
                  JOINT LeftHandThumb1
                  {
                    OFFSET 2.48905 0.190105 3.12053
                    CHANNELS 3 Zrotation Xrotation Yrotation
                    JOINT LeftHandThumb2
                    {
                      OFFSET 3.68274 0 0
                      CHANNELS 3 Zrotation Xrotation Yrotation
                      JOINT LeftHandThumb3
                      {
                        OFFSET 2.55832 0 0
                        CHANNELS 3 Zrotation Xrotation Yrotation
                        End Site
                        {
                          OFFSET 2.194 0 0
                        }
                      }
                    }
                  }
                  JOINT LeftInHandIndex
                  {
                    OFFSET 3.22368 0.508421 1.97842
                    CHANNELS 3 Zrotation Xrotation Yrotation
                    JOINT LeftHandIndex1
                    {
                      OFFSET 5.21684 -0.091368 0.999158
                      CHANNELS 3 Zrotation Xrotation Yrotation
                      JOINT LeftHandIndex2
                      {
                        OFFSET 3.61937 0 0
                        CHANNELS 3 Zrotation Xrotation Yrotation
                        JOINT LeftHandIndex3
                        {
                          OFFSET 2.0521 0 0
                          CHANNELS 3 Zrotation Xrotation Yrotation
                          End Site
                          {
                            OFFSET 1.805 0 0
                          }
                        }
                      }
                    }
                  }
                  JOINT LeftInHandMiddle
                  {
                    OFFSET 3.38211 0.517263 0.756737
                    CHANNELS 3 Zrotation Xrotation Yrotation
                    JOINT LeftHandMiddle1
                    {
                      OFFSET 5.17411 -0.084 0.313895
                      CHANNELS 3 Zrotation Xrotation Yrotation
                      JOINT LeftHandMiddle2
                      {
                        OFFSET 3.94947 0 0
                        CHANNELS 3 Zrotation Xrotation Yrotation
                        JOINT LeftHandMiddle3
                        {
                          OFFSET 2.47579 0 0
                          CHANNELS 3 Zrotation Xrotation Yrotation
                          End Site
                          {
                            OFFSET 1.975 0 0
                          }
                        }
                      }
                    }
                  }
                  JOINT LeftInHandRing
                  {
                    OFFSET 3.36516 0.537895 -0.128947
                    CHANNELS 3 Zrotation Xrotation Yrotation
                    JOINT LeftHandRing1
                    {
                      OFFSET 4.63474 -0.022105 -0.478947
                      CHANNELS 3 Zrotation Xrotation Yrotation
                      JOINT LeftHandRing2
                      {
                        OFFSET 3.44238 0 0
                        CHANNELS 3 Zrotation Xrotation Yrotation
                        JOINT LeftHandRing3
                        {
                          OFFSET 2.3881 0 0
                          CHANNELS 3 Zrotation Xrotation Yrotation
                          End Site
                          {
                            OFFSET 1.857 0 0
                          }
                        }
                      }
                    }
                  }
                  JOINT LeftInHandPinky
                  {
                    OFFSET 3.16105 0.469368 -1.20179
                    CHANNELS 3 Zrotation Xrotation Yrotation
                    JOINT LeftHandPinky1
                    {
                      OFFSET 4.14105 -0.022105 -1.09053
                      CHANNELS 3 Zrotation Xrotation Yrotation
                      JOINT LeftHandPinky2
                      {
                        OFFSET 2.75653 0 0
                        CHANNELS 3 Zrotation Xrotation Yrotation
                        JOINT LeftHandPinky3
                        {
                          OFFSET 1.74189 0 0
                          CHANNELS 3 Zrotation Xrotation Yrotation
                          End Site
                          {
                            OFFSET 1.645 0 0
                          }
                        }
                      }
                    }
                  }
                }
              }
            }
          }
        }
      }
    }
  }
}
MOTION
Frames: 3
Frame Time: 0.00833333
3.000000668133762929e+02 -3.976115059667251672e-05 -1.628000375926776360e-03 8.858301762001108762e-03 3.754081078032295987e-02 1.047359935164151878e-01 -2.778883651690659470e-02 -2.142438934018688068e-02 -3.434021676883490526e-02 -1.359105105641220286e-02 2.540719361741231724e-02 -8.344980515705907598e-02 1.742115557168681553e-04 -3.792279275956223113e-03 -3.020727563127042787e-03 -5.990058489139078735e-02 -3.980921573442092187e-02 -1.607366016867645686e-01 -9.024699110248460276e-03 1.629560710472195348e-03 2.560751832961936925e-02 4.769959374356757664e-04 -2.581059960121834598e-03 2.125896286458521783e-03 4.066741001832378799e-02 -4.538647116189467590e-03 -6.097935802058408739e-02 8.517685832602546470e-03 -1.947696394491948068e-03 -1.357132978685997998e-02 1.388747187205115891e-02 -2.355767703028533323e-03 -2.151847655298314357e-02 8.868558675502972045e-04 -3.154141887324727104e-04 -1.577914219151672643e-03 1.543334912808937316e-03 3.934845283672697928e-04 -1.702844554505692680e-03 1.538622735269646810e-02 -7.019474450396944072e-03 -2.858389960319831363e-02 -5.433578526628985751e-03 -5.418580693155672715e-03 4.200146860638406983e-03 8.077391209440523256e-04 1.005539471493135245e-02 -4.217888365633892453e-03 -2.020390234994368095e-03 2.939541808346770972e-03 6.361612234422006976e-03 -4.740163394934359536e-02 2.090118581629396566e-02 -4.339867803190392698e-02 0.000000000000000000e+00 0.000000000000000000e+00 0.000000000000000000e+00 -1.886031890018611651e-15 7.995236322754833429e-16 0.000000000000000000e+00 -1.192796171757585721e-15 4.507461624328003695e-16 0.000000000000000000e+00 7.025000846158833721e-16 7.770978825575380672e-16 8.732931920074799732e-16 0.000000000000000000e+00 0.000000000000000000e+00 0.000000000000000000e+00 0.000000000000000000e+00 6.083878633359244472e-16 3.452938948077795499e-15 0.000000000000000000e+00 -1.479132122101270619e-14 -8.725195017802190890e-14 7.025000846158833721e-16 7.770978825575380672e-16 8.732931920074799732e-16 0.000000000000000000e+00 1.505425739399648519e-15 3.126785899195348486e-15 0.000000000000000000e+00 1.616825617540387396e-15 4.476149873605371222e-15 0.000000000000000000e+00 1.517546252014252845e-15 7.927436537573676772e-15 7.025000846158833721e-16 7.770978825575380672e-16 8.732931920074799732e-16 0.000000000000000000e+00 0.000000000000000000e+00 0.000000000000000000e+00 0.000000000000000000e+00 -2.756019926447712285e-16 4.011857875632814025e-15 0.000000000000000000e+00 3.141189567079016635e-15 2.408276186233228752e-14 7.025000846158833721e-16 7.770978825575380672e-16 8.732931920074799732e-16 0.000000000000000000e+00 0.000000000000000000e+00 0.000000000000000000e+00 0.000000000000000000e+00 2.013705283507658773e-15 3.321600155616749745e-15 0.000000000000000000e+00 4.605091953394392642e-16 3.645263774742683536e-15 1.228193571651877293e-04 1.546264260750707152e-03 1.973410875043876862e-03 7.317774743130740951e-03 2.875332007352650147e-03 3.099641500085662318e-03 -3.489533029650093536e-04 -2.741540863856139695e-02 -4.113181801970240692e-03 1.450159837074391396e-02 2.249012242754638291e-01 2.476649960783787463e-02 0.000000000000000000e+00 0.000000000000000000e+00 0.000000000000000000e+00 1.142694971304643733e-15 -4.601627175161356279e-16 0.000000000000000000e+00 -6.266978538250688904e-16 -4.597924527257135907e-16 0.000000000000000000e+00 7.478313074675177910e-16 1.078254725368325522e-16 -1.169964246463256327e-16 0.000000000000000000e+00 0.000000000000000000e+00 0.000000000000000000e+00 0.000000000000000000e+00 -5.237688245667529993e-16 1.229912412452994403e-15 0.000000000000000000e+00 -1.019928382817787843e-16 9.553086503884047217e-16 7.478313074675177910e-16 1.078254725368325522e-16 -1.169964246463256327e-16 0.000000000000000000e+00 -3.365779896905925374e-16 2.035164751136574476e-16 0.000000000000000000e+00 -1.087370411100812875e-15 9.380694306902033772e-16 0.000000000000000000e+00 1.570349087494096001e-16 1.125346443279200597e-15 7.478313074675177910e-16 1.078254725368325522e-16 -1.169964246463256327e-16 0.000000000000000000e+00 0.000000000000000000e+00 0.000000000000000000e+00 0.000000000000000000e+00 -4.841291217982268243e-17 4.222528656341867634e-16 0.000000000000000000e+00 4.599179958734157039e-16 7.408139759299029004e-16 7.478313074675177910e-16 1.078254725368325522e-16 -1.169964246463256327e-16 0.000000000000000000e+00 0.000000000000000000e+00 0.000000000000000000e+00 0.000000000000000000e+00 -1.061436294724335538e-15 9.352244206535198186e-16 0.000000000000000000e+00 3.886337212153103216e-16 1.853051901988051813e-15
2.999927051924822763e+02 -2.467106103865104611e-04 -2.417035526381476271e-02 1.721549011951346506e-02 6.906585565156467266e-02 1.791483310531434836e-01 -5.011243269164075698e-02 -4.021284084478649740e-02 -7.736047225149955686e-02 -2.225660127200634539e-02 4.989165387300727172e-02 -1.180246555666225050e-01 -5.193018238969771255e-04 -1.470799415748050287e-02 -1.510422464196957415e-02 -4.499928872063399185e-03 -7.364141821610964422e-02 -6.145171983494244344e-02 2.692572643488764031e-02 -6.568588734858414775e-03 -1.179613864170241944e-01 -1.497167175084455903e-02 1.331875841852495079e-02 -2.213840542222073743e-02 4.322984433544663219e-02 -7.433599859990203985e-03 -6.858091937335049348e-02 8.937468071439429521e-03 -1.822213830406777891e-03 -1.540209639983365977e-02 1.456490696889723921e-02 -1.526291075845803962e-03 -2.455494116887740191e-02 1.171732645701528686e-03 3.596195153544386896e-04 -1.096119887697749942e-03 1.206383477461238623e-03 3.925810247718714311e-04 -1.247088994208615320e-03 2.050390336645682710e-02 -4.943868372758278805e-03 -1.937880447565485179e-02 2.594357813653563188e-03 -8.171027339444966037e-03 2.691244820475927838e-03 -1.651639101998826284e-02 1.524649395433340035e-02 2.584132143068988696e-02 -9.044244782864034604e-02 5.614064836814083859e-02 -9.623228660145748126e-02 1.308134347188685265e-01 -2.393712147047284411e-01 2.561473332881851750e-01 0.000000000000000000e+00 0.000000000000000000e+00 0.000000000000000000e+00 -1.185174804333374286e-16 4.407447125687248506e-18 0.000000000000000000e+00 3.597074044546382058e-15 5.403760926695396490e-16 0.000000000000000000e+00 2.698791752556603826e-15 -4.318742458329998222e-16 -1.127906680076333757e-15 0.000000000000000000e+00 0.000000000000000000e+00 0.000000000000000000e+00 0.000000000000000000e+00 1.313889243572816147e-16 -4.334115598463576155e-15 0.000000000000000000e+00 -1.415538961105103244e-14 -7.409091183695014031e-14 2.698791752556603826e-15 -4.318742458329998222e-16 -1.127906680076333757e-15 0.000000000000000000e+00 -9.282127505082321655e-16 1.115589696535115340e-15 0.000000000000000000e+00 -4.507526131099753362e-15 -3.444900234982440336e-15 0.000000000000000000e+00 1.553143157440247862e-14 8.780799104467722790e-14 2.698791752556603826e-15 -4.318742458329998222e-16 -1.127906680076333757e-15 0.000000000000000000e+00 0.000000000000000000e+00 0.000000000000000000e+00 0.000000000000000000e+00 -1.272624631996289941e-15 2.189408958084347141e-15 0.000000000000000000e+00 -2.478225571406101422e-16 -2.450818482210806483e-15 2.698791752556603826e-15 -4.318742458329998222e-16 -1.127906680076333757e-15 0.000000000000000000e+00 0.000000000000000000e+00 0.000000000000000000e+00 0.000000000000000000e+00 -1.197784216390442623e-15 2.473312245158531402e-15 0.000000000000000000e+00 2.190704789742525470e-15 1.906943963816823753e-14 2.371837132403924967e-03 -1.479535054347798102e-03 1.449780821349810379e-02 4.429450416920791000e-03 -1.037874126963497616e-02 -2.034977944854053297e-02 3.115306204482604785e-02 -6.423548857207730944e-02 3.597325094325458383e-02 1.802933988955268338e-02 3.557535123103584551e-01 4.608117141656259408e-02 0.000000000000000000e+00 0.000000000000000000e+00 0.000000000000000000e+00 1.239701454007759062e-15 3.275798748137284566e-16 0.000000000000000000e+00 8.108482964466708757e-16 8.586148683895198270e-16 0.000000000000000000e+00 -7.001775124392207564e-16 -6.157314106121135537e-16 -1.203830580188633577e-15 0.000000000000000000e+00 0.000000000000000000e+00 0.000000000000000000e+00 0.000000000000000000e+00 -1.943700885010442002e-15 1.067385603089318163e-14 0.000000000000000000e+00 -5.794048883492566044e-16 1.030924609643264550e-14 -7.001775124392207564e-16 -6.157314106121135537e-16 -1.203830580188633577e-15 0.000000000000000000e+00 3.143040543659857446e-16 4.681985913642336585e-15 0.000000000000000000e+00 -1.389795671645611981e-15 1.085685438138277268e-14 0.000000000000000000e+00 -2.327055451386333921e-15 1.107271724915544107e-14 -7.001775124392207564e-16 -6.157314106121135537e-16 -1.203830580188633577e-15 0.000000000000000000e+00 0.000000000000000000e+00 0.000000000000000000e+00 0.000000000000000000e+00 -1.979516713798194144e-15 1.004012471746489320e-14 0.000000000000000000e+00 -2.640222831963662561e-15 1.248175008759983204e-14 -7.001775124392207564e-16 -6.157314106121135537e-16 -1.203830580188633577e-15 0.000000000000000000e+00 0.000000000000000000e+00 0.000000000000000000e+00 0.000000000000000000e+00 -3.319921024327105128e-15 8.150507591700904437e-15 0.000000000000000000e+00 -5.701365838863713461e-15 1.565037750137293014e-14
2.999990670627595364e+02 -3.716400543898962998e-05 -4.239167315577640691e-03 2.907843507597729273e-03 8.230844112865967621e-03 2.451511812307188842e-02 -6.765992459135901360e-02 1.276424147678477568e-02 -1.225496589071380232e-01 1.125395111684380188e-02 -1.163625279975643266e-02 5.357048282638086911e-02 6.819656562609269831e-05 -2.118957913640066686e-03 -2.294218691405326433e-03 3.661495028961180096e-03 -1.025636170961147751e-02 3.150416518775940675e-03 5.168450156143603903e-03 -1.247409008602626095e-03 -2.521577748174421915e-02 -1.474112149068884268e-03 2.719288589153353534e-03 -3.372201887107115648e-03 4.215726897605701073e-03 -1.009159602476498952e-03 -7.938552299449643662e-03 8.458159665952107512e-04 -5.947877855977056990e-05 -1.843495394750312632e-03 1.390184554833713082e-03 1.437869408900367490e-04 -3.000575545967582025e-03 -2.002619761604486017e-05 1.492026289512701873e-04 1.602899268542676888e-04 -1.057668641970846922e-04 5.054885223335756528e-05 1.804421533461271151e-04 -3.108687510564513579e-04 1.313595825524810920e-03 2.902927616800133996e-03 1.036705790580547603e-03 -4.454638896399955696e-04 -6.242385793212515020e-04 8.897320908156765296e-03 -1.900278703590598667e-02 7.741086152891678805e-03 -2.478129512830384157e-02 2.004083261180231515e-02 -3.589657808683267143e-02 1.642606570987194536e-01 -2.349001238911522238e-01 3.129130513463541097e-01 0.000000000000000000e+00 0.000000000000000000e+00 0.000000000000000000e+00 1.070062173882223028e-15 -5.711963156601670892e-16 0.000000000000000000e+00 4.400717755263586587e-16 -9.401733132078378359e-16 0.000000000000000000e+00 -8.359509450250910354e-16 4.586838843089501371e-16 -6.032125330034516527e-16 0.000000000000000000e+00 0.000000000000000000e+00 0.000000000000000000e+00 0.000000000000000000e+00 -4.836114874611214949e-16 -2.969342673774163164e-15 0.000000000000000000e+00 7.249422386924530046e-15 4.475901764793741445e-14 -8.359509450250910354e-16 4.586838843089501371e-16 -6.032125330034516527e-16 0.000000000000000000e+00 -1.171175215968538280e-15 -6.264849558270541689e-16 0.000000000000000000e+00 -2.166704033460778100e-15 -3.168888778627380771e-15 0.000000000000000000e+00 -1.904725527637561669e-15 -7.300270913233272274e-15 -8.359509450250910354e-16 4.586838843089501371e-16 -6.032125330034516527e-16 0.000000000000000000e+00 0.000000000000000000e+00 0.000000000000000000e+00 0.000000000000000000e+00 5.329039883267921858e-17 -1.995613163738931613e-15 0.000000000000000000e+00 -3.868788213032807133e-15 -2.270201139949470739e-14 -8.359509450250910354e-16 4.586838843089501371e-16 -6.032125330034516527e-16 0.000000000000000000e+00 0.000000000000000000e+00 0.000000000000000000e+00 0.000000000000000000e+00 -1.918538478505923171e-15 -1.230788876343001606e-15 0.000000000000000000e+00 -1.375243909248652512e-15 -5.771224658136590517e-15 -5.154057704001613381e-04 -3.068667489071175668e-04 1.548208841495743232e-03 -2.749519448479264758e-03 -2.529984182582258219e-03 -2.048752487743674480e-03 6.582036002103326504e-03 -5.959887705269100583e-03 6.207943975195056273e-03 -6.601926135974193859e-03 -1.398181012119492361e-01 -1.675299335132725970e-02 0.000000000000000000e+00 0.000000000000000000e+00 0.000000000000000000e+00 -3.722396360865267473e-16 3.520680107763459554e-16 0.000000000000000000e+00 -8.140835148072999821e-16 5.395906600265755774e-16 0.000000000000000000e+00 -6.857139062870000815e-16 -3.464582905203909306e-17 -1.034479350406798922e-16 0.000000000000000000e+00 0.000000000000000000e+00 0.000000000000000000e+00 0.000000000000000000e+00 -2.820278199361833394e-16 1.603370565415024215e-15 0.000000000000000000e+00 -2.917496386597731205e-16 1.308656208288244747e-15 -6.857139062870000815e-16 -3.464582905203909306e-17 -1.034479350406798922e-16 0.000000000000000000e+00 -7.415869602032110169e-18 1.480608911132892032e-15 0.000000000000000000e+00 5.665008464920259580e-16 1.323151945918105962e-15 0.000000000000000000e+00 -7.035526391444897965e-16 6.080856129513607571e-16 -6.857139062870000815e-16 -3.464582905203909306e-17 -1.034479350406798922e-16 0.000000000000000000e+00 0.000000000000000000e+00 0.000000000000000000e+00 0.000000000000000000e+00 1.049357383160818460e-16 2.271348181786243831e-15 0.000000000000000000e+00 -7.370671892565616831e-16 2.128343334804059553e-15 -6.857139062870000815e-16 -3.464582905203909306e-17 -1.034479350406798922e-16 0.000000000000000000e+00 0.000000000000000000e+00 0.000000000000000000e+00 0.000000000000000000e+00 1.229195249572202410e-17 5.368781167276781581e-16 0.000000000000000000e+00 -9.828543219969846157e-16 1.418339781558813730e-15
